<svg xmlns="http://www.w3.org/2000/svg" viewBox="0 0 586.85 177.93"><defs><style>.cls-1{fill:#fef321;}.cls-2{font-size:101.37px;font-family:Avenir-Medium, Avenir;font-weight:500;letter-spacing:0.1em;}.cls-2,.cls-4{fill:#ed1b24;}.cls-3{font-size:36px;fill:#26408f;font-family:Baskerville-SemiBold, Baskerville;font-weight:600;letter-spacing:1em;}</style></defs><title>kottram</title><g id="Layer_2" data-name="Layer 2"><g id="Layer_1-2" data-name="Layer 1"><path class="cls-1" d="M148.75,3.5V53.24A29,29,0,0,0,145,53a31.71,31.71,0,0,0-3.25.17V3.5a3.46,3.46,0,0,1,1-2.47,3.44,3.44,0,0,1,2.47-1A3.5,3.5,0,0,1,148.75,3.5Z"/><path class="cls-1" d="M148.75,112.76V162.5a3.5,3.5,0,0,1-7,0V112.83A31.71,31.71,0,0,0,145,113,29,29,0,0,0,148.75,112.76Z"/><path class="cls-1" d="M115.27,87H3.5a3.5,3.5,0,0,1,0-7H115.14c-.09,1-.14,2-.14,3A29.32,29.32,0,0,0,115.27,87Z"/><path class="cls-1" d="M203,83.5a3.5,3.5,0,0,1-3.5,3.5H174.73a29.32,29.32,0,0,0,.27-4c0-1-.05-2-.14-3H199.5a3.52,3.52,0,0,1,3.5,3.5Z"/><path class="cls-1" d="M126.55,59.35a29.72,29.72,0,0,0-5,4.92l-34.7-34.7a3.5,3.5,0,1,1,4.95-4.95Z"/><path class="cls-1" d="M204.25,142a3.49,3.49,0,0,1-4.95,0l-35.57-35.57a29.72,29.72,0,0,0,4.92-5l35.6,35.6A3.49,3.49,0,0,1,204.25,142Z"/><path class="cls-1" d="M127.08,107.06,90,144.16A3.5,3.5,0,0,1,85,139.21l37-37A29.67,29.67,0,0,0,127.08,107.06Z"/><path class="cls-1" d="M202.41,31.73,169.06,65.08A29.67,29.67,0,0,0,164.25,60l33.21-33.22a3.5,3.5,0,0,1,4.95,4.95Z"/><path class="cls-1" d="M118.79,68.42a28.35,28.35,0,0,0-2.66,6.46L94.22,65.81a3.5,3.5,0,0,1,2.68-6.46Z"/><path class="cls-1" d="M198.57,105.25a3.49,3.49,0,0,1-4.57,1.89l-22.84-9.46a29.17,29.17,0,0,0,2.69-6.46l22.83,9.46A3.5,3.5,0,0,1,198.57,105.25Z"/><path class="cls-1" d="M118.74,97.51,97.9,106.14a3.5,3.5,0,0,1-2.68-6.46L116.1,91A29.38,29.38,0,0,0,118.74,97.51Z"/><path class="cls-1" d="M199.84,61.58a3.51,3.51,0,0,1-2.16,3.23l-23.86,9.88a28.49,28.49,0,0,0-2.71-6.45L195,58.35a3.5,3.5,0,0,1,4.84,3.23Z"/><path class="cls-1" d="M137.52,54A29.07,29.07,0,0,0,131,56.48L121.55,33.7A3.5,3.5,0,1,1,128,31Z"/><path class="cls-1" d="M169.62,132.13a3.5,3.5,0,0,1-6.74,1.34l-9-21.8a29.42,29.42,0,0,0,6.4-2.84l9.1,22A3.51,3.51,0,0,1,169.62,132.13Z"/><path class="cls-1" d="M135.8,111.56l-10.48,21.92a3.5,3.5,0,0,1-3.15,2,3.45,3.45,0,0,1-1.52-.35,3.5,3.5,0,0,1-1.65-4.66l10.43-21.82A29.44,29.44,0,0,0,135.8,111.56Z"/><path class="cls-1" d="M171.9,36,161.44,57.92a29.12,29.12,0,0,0-6.26-3.14L165.58,33a3.5,3.5,0,0,1,6.32,3Z"/><rect class="cls-1" x="115" y="80" width="14" height="7"/><text class="cls-2" transform="translate(34.34 118.57)">K</text><text class="cls-2" transform="translate(185.34 118.57)">TTRAM</text><text class="cls-3" transform="translate(42.67 164.94)">Healthcare</text><path class="cls-4" d="M145.25,45a38,38,0,1,0,38,38A38,38,0,0,0,145.25,45ZM145,113a30,30,0,1,1,30-30A30,30,0,0,1,145,113Z"/><circle class="cls-1" cx="145" cy="83" r="19"/></g></g></svg>