<svg xmlns="http://www.w3.org/2000/svg" viewBox="0 0 346.7 182.58"><defs><style>.cls-1,.cls-2{fill:#2c1245;}.cls-2{font-size:41.64px;font-family:Montserrat-SemiBold, Montserrat;font-weight:600;letter-spacing:0.04em;}.cls-3{letter-spacing:0.05em;}.cls-4{font-size:23.98px;fill:#666;font-family:Montserrat-Medium, Montserrat;font-weight:500;letter-spacing:0.05em;}.cls-5{letter-spacing:0.04em;}</style></defs><title>virginia</title><g id="Layer_2" data-name="Layer 2"><g id="Layer_1-2" data-name="Layer 1"><path class="cls-1" d="M122.56,61.56C99,46.08,78.78,21.45,65.51,0c-9,12.93-11,36.58-9.08,50.55C38.18,37,22.7,21.24,12.8,7.93.74,34.54,5.59,65.7,20.33,84.88c9.51,12.37,23.36,22.49,42.31,30.91C45.07,132.63,24.28,145.3,0,147.75c20.07,9.46,38.6,13.44,54.6,13.44,28.22,0,43.67-11.76,42.29-24.94-.84-8.05-7.84-15.88-20.33-22.81-2.68-1.27-4.66-2.48-9.31-4.55C25.09,90.11,8,62.7,15.69,24.07c8.25,9.74,19.68,19.74,31.43,29.51C66.76,69.9,92,81.07,104.34,85.35s29.41,7.71,44.53,6.74c27.22-1.76,43.81-19.12,59.22-21.86C180.84,42.14,150.86,44.57,122.56,61.56Zm-52,57.93c11,5.74,17.63,12.09,18.21,17.62.31,3-1.3,5.9-4.79,8.59-14,10.83-42.83,7.52-60,3.37C41.49,144.68,55.81,134,70.56,119.49ZM102.6,76A169.37,169.37,0,0,1,66.12,57.36c-3.32-12.48-3-25.85,1-39.87,10.57,15.81,27.91,35,48,48.89C110.9,69.32,106.72,72.56,102.6,76Zm40.29,8.07a107.87,107.87,0,0,1-31.2-5C137.83,58.2,167,47,193.35,67.67,180.2,70.9,171,84.11,142.89,84.11Z"/><path class="cls-1" d="M159.75,64.3A4.71,4.71,0,1,0,165.5,61,4.71,4.71,0,0,0,159.75,64.3Z"/><text class="cls-2" transform="translate(132.95 144.26)">V<tspan class="cls-3" x="31.81" y="0">IRGINIA</tspan></text><text class="cls-4" transform="translate(162.59 176.28)">ENTER<tspan class="cls-5" x="89.12" y="0">P</tspan><tspan x="107.39" y="0">RISES</tspan></text></g></g></svg>